<?xml version="1.0" encoding="utf-8"?><svg version="1.1" xmlns="http://www.w3.org/2000/svg" xmlns:xlink="http://www.w3.org/1999/xlink" x="0px" y="0px" width="1200px" height="868.193px" viewBox="0 0 1200 868.193" ><path fill="#E75A4D" d="M1101.533,0c54.066,0,98.307,44.24,98.307,98.307v28.499l-136.578,97.561L598.282,544.668L133.304,221.117 v647.077H98.307C44.239,868.193,0,823.953,0,769.887V98.333C0,44.266,44.239,0.027,98.307,0.027L598.282,370.72L1101.506,0.027 L1101.533,0z"/><polygon fill="#E7E4D7" points="133.304,221.117 133.304,868.193 1063.287,868.193 1063.287,224.366 598.282,544.668 "/><polygon fill="#B8B7AE" points="133.304,868.193 598.282,544.668 596.178,543.176 133.304,861.082 "/><polygon fill="#B7B6AD" points="1063.287,224.366 1063.553,868.193 598.282,544.668 "/><path fill="#B2392F" d="M1199.84,126.805l0.16,643.162c-2.344,71.484-33.318,97-136.447,98.199l-0.266-643.827l136.58-97.561 L1199.84,126.805z"/><polygon fill="#F7F5ED" points="98.307,0 598.282,370.693 1101.533,0 "/></svg>